<svg width="27" height="24" viewBox="0 0 27 24" fill="none" xmlns="http://www.w3.org/2000/svg">
<path d="M13.6026 0.458845L4.79603 6.98648H2.09353C0.937685 6.98648 0 7.92466 0 9.08396V14.9797C0 16.1387 0.937685 17.0774 2.09353 17.0774H4.79603L13.4155 23.431C13.4155 23.431 15 24.7426 15 23.3831V0.481162C15 -0.588278 13.6026 0.458845 13.6026 0.458845Z" fill="white"/>
<path d="M19.6179 6.30134C19.2489 5.89955 18.6485 5.89955 18.2796 6.30134C17.9068 6.69785 17.9068 7.35031 18.2796 7.74389C19.5 9.05936 20.1045 10.7725 20.1045 12.4941C20.1004 14.2175 19.4962 15.9415 18.2796 17.2529C17.9068 17.6485 17.9068 18.3021 18.2796 18.7039C18.464 18.9025 18.7034 19 18.9506 19C19.1902 19 19.4334 18.9025 19.6179 18.7039C21.2072 16.9864 22 14.7362 22 12.4941C22 10.2509 21.2072 8.01009 19.6179 6.30134Z" fill="white"/>
<path d="M22.8564 2.30959C22.4253 1.8968 21.7427 1.8968 21.3163 2.30959C20.8946 2.72238 20.8946 3.38231 21.3163 3.7948C23.6598 6.06169 24.8272 9.01587 24.8315 11.9815C24.8272 14.9648 23.6641 17.9355 21.3163 20.2111C20.8946 20.6191 20.8946 21.2836 21.3163 21.696C21.5277 21.8981 21.8102 22 22.084 22C22.3625 22 22.6407 21.8981 22.8564 21.696C25.6175 19.0125 27 15.4949 27 11.9815C27 8.48553 25.6082 4.98146 22.8564 2.30959Z" fill="white"/>
</svg>
